<svg xmlns="http://www.w3.org/2000/svg" width="624" height="320" viewBox="0 0 624 320"><rect width="100%" height="100%" fill="#DDDDDD"/><path fill="#999999" d="m162.105 129.995-17.81 21.79-2.07 2.57q1.74-.87 3.75-1.35 2.02-.47 4.34-.47 3.4 0 6.62 1.12t5.67 3.38q2.44 2.26 3.94 5.62 1.49 3.36 1.49 7.84 0 4.2-1.53 7.87-1.54 3.67-4.32 6.41-2.78 2.74-6.7 4.32-3.92 1.57-8.65 1.57-4.82 0-8.64-1.53-3.81-1.54-6.51-4.3-2.7-2.76-4.13-6.64-1.43-3.88-1.43-8.61 0-4.23 1.72-8.69 1.72-4.46 5.33-9.28l14.32-19.21q.75-1 2.18-1.7 1.43-.71 3.3-.71h9.13Zm-15.48 52.29q2.45 0 4.5-.83t3.53-2.32q1.47-1.5 2.3-3.51.83-2.01.83-4.38 0-2.57-.79-4.63-.79-2.05-2.24-3.48-1.45-1.43-3.48-2.18-2.04-.75-4.49-.75-2.44 0-4.44.83-1.99.83-3.4 2.31-1.41 1.47-2.2 3.48-.79 2.01-.79 4.34 0 2.49.69 4.54.68 2.06 2.03 3.51 1.35 1.45 3.34 2.26 1.99.81 4.61.81Zm49.47-1.82h15.39q1.66 0 2.64.93.97.93.97 2.47v6.14h-41.17v-3.4q0-1.04.44-2.18.44-1.14 1.39-2.06l18.22-18.26q2.28-2.32 4.09-4.44 1.8-2.11 3.01-4.19 1.2-2.07 1.84-4.21.65-2.14.65-4.5 0-2.16-.63-3.8-.62-1.64-1.76-2.76-1.14-1.12-2.74-1.68-1.6-.56-3.59-.56-1.83 0-3.38.52-1.56.52-2.76 1.45-1.2.93-2.03 2.18-.83 1.24-1.25 2.74-.71 1.91-1.83 2.53-1.12.62-3.23.29l-5.4-.95q.62-4.32 2.41-7.58 1.78-3.26 4.46-5.43 2.68-2.18 6.14-3.28 3.47-1.1 7.45-1.1 4.15 0 7.6 1.22 3.44 1.23 5.89 3.47 2.45 2.24 3.82 5.39 1.37 3.16 1.37 7.01 0 3.32-.98 6.15-.97 2.82-2.61 5.39-1.64 2.58-3.84 4.98-2.2 2.41-4.61 4.9l-13.53 13.82q1.95-.58 3.88-.89 1.93-.31 3.68-.31Zm34.11-13.08h18.26v-19.63q0-2.78.37-6.14l-18.63 25.77Zm27.18 0h7.55v5.94q0 .83-.54 1.43-.53.6-1.53.6h-5.48v14.65h-8.92v-14.65h-25.32q-1.03 0-1.82-.64-.79-.65-1-1.6l-1.08-5.19 28.43-37.97h9.71v37.43Zm73.5 8.88-5.44 5.36-14.07-14.07-14.19 14.15-5.44-5.35 14.2-14.24-13.53-13.53 5.39-5.39 13.53 13.53 13.45-13.45 5.48 5.4-13.49 13.48 14.11 14.11Zm34.53-28.59-5.4-.95q.62-4.32 2.41-7.58 1.78-3.26 4.46-5.43 2.68-2.18 6.14-3.28 3.47-1.1 7.45-1.1 4.15 0 7.49 1.18t5.71 3.28q2.36 2.09 3.63 4.92 1.26 2.82 1.26 6.1 0 2.86-.64 5.04t-1.85 3.8q-1.2 1.61-2.98 2.73-1.79 1.13-4.03 1.87 5.4 1.7 8.05 5.19 2.66 3.49 2.66 8.76 0 4.48-1.66 7.92-1.66 3.45-4.48 5.79-2.83 2.35-6.54 3.55-3.71 1.2-7.86 1.2-4.53 0-7.89-1.03-3.36-1.04-5.85-3.07-2.49-2.04-4.23-4.98-1.75-2.95-2.99-6.81l4.52-1.87q1.79-.75 3.34-.39 1.56.35 2.26 1.68.75 1.45 1.64 2.86.9 1.41 2.14 2.51 1.25 1.1 2.93 1.79 1.68.68 4 .68 2.62 0 4.57-.85 1.95-.85 3.25-2.22 1.31-1.37 1.95-3.05.65-1.68.65-3.38 0-2.16-.46-3.92-.46-1.77-1.91-3.01-1.45-1.25-4.17-1.95-2.72-.71-7.28-.71v-7.3q3.77-.04 6.26-.71 2.49-.66 3.97-1.84 1.47-1.19 2.05-2.85.58-1.66.58-3.65 0-4.23-2.36-6.43-2.37-2.2-6.31-2.2-1.83 0-3.36.52-1.54.52-2.76 1.45-1.23.93-2.06 2.18-.83 1.24-1.24 2.74-.71 1.91-1.85 2.53-1.14.62-3.21.29Zm63.57 32.79h15.4q1.66 0 2.64.93.97.93.97 2.47v6.14h-41.17v-3.4q0-1.04.44-2.18.43-1.14 1.39-2.06l18.22-18.26q2.28-2.32 4.09-4.44 1.8-2.11 3-4.19 1.21-2.07 1.85-4.21.64-2.14.64-4.5 0-2.16-.62-3.8-.62-1.64-1.76-2.76-1.14-1.12-2.74-1.68-1.6-.56-3.59-.56-1.83 0-3.38.52-1.56.52-2.76 1.45-1.21.93-2.04 2.18-.83 1.24-1.24 2.74-.71 1.91-1.83 2.53-1.12.62-3.23.29l-5.4-.95q.62-4.32 2.41-7.58 1.78-3.26 4.46-5.43 2.68-2.18 6.14-3.28 3.47-1.1 7.45-1.1 4.15 0 7.59 1.22 3.45 1.23 5.9 3.47t3.82 5.39q1.36 3.16 1.36 7.01 0 3.32-.97 6.15-.98 2.82-2.61 5.39-1.64 2.58-3.84 4.98-2.2 2.41-4.61 4.9l-13.53 13.82q1.95-.58 3.88-.89 1.93-.31 3.67-.31Zm68.89-20.46q0 7.84-1.68 13.63-1.68 5.79-4.64 9.56-2.97 3.78-7.02 5.63-4.04 1.84-8.73 1.84t-8.7-1.84q-4-1.85-6.95-5.63-2.95-3.77-4.61-9.56-1.66-5.79-1.66-13.63 0-7.89 1.66-13.66 1.66-5.77 4.61-9.54 2.95-3.78 6.95-5.63 4.01-1.84 8.7-1.84 4.69 0 8.73 1.84 4.05 1.85 7.02 5.63 2.96 3.77 4.64 9.54 1.68 5.77 1.68 13.66Zm-10.58 0q0-6.52-.95-10.79-.96-4.28-2.56-6.81-1.59-2.53-3.67-3.55-2.07-1.02-4.31-1.02-2.2 0-4.26 1.02-2.05 1.02-3.63 3.55t-2.51 6.81q-.93 4.27-.93 10.79 0 6.51.93 10.79.93 4.27 2.51 6.8 1.58 2.53 3.63 3.55 2.06 1.02 4.26 1.02 2.24 0 4.31-1.02 2.08-1.02 3.67-3.55 1.6-2.53 2.56-6.8.95-4.28.95-10.79Z"/></svg>